<svg width="210" height="210" viewBox="0 0 210 210" fill="none" xmlns="http://www.w3.org/2000/svg">
<path fill-rule="evenodd" clip-rule="evenodd" d="M105 0C162.99 0 210 47.0101 210 105C210 162.99 162.99 210 105 210C47.0101 210 0 162.99 0 105C0 47.0101 47.0101 0 105 0ZM50.7898 130.412C46.679 130.415 43.1483 130.53 39.2433 131.926L33.0909 134.35C33.0909 136.259 33.0909 136.259 33.8839 137.986L35 140.077C37.2508 144.37 39.5333 148.66 42.3604 152.605C52.1032 165.686 67.4567 178.146 84 180.804C86.6272 176.132 87.2999 170.296 87.3807 165.015C87.0897 156.049 83.4584 147.171 77.1218 140.686C69.9878 134.315 62.1377 130.367 52.4565 130.389L50.7898 130.412ZM176.909 134.35C168.065 130.741 157.765 128.526 148.273 131.168C138.023 134.978 130.574 141.581 125.645 151.348C121.315 161.227 122.173 170.96 126 180.804H127.909C141.331 176.785 153.639 168.943 162.775 158.323L164.182 156.623C167.533 152.643 170.495 148.641 172.998 144.068C173.259 143.577 173.513 143.1 173.767 142.623C175.214 139.904 176.516 137.448 176.909 134.35ZM113.273 96.168C104.956 92.2388 96.3832 94.3184 90.3636 101.259C87.0598 105.825 86.515 110.364 87.1818 115.895C88.5437 120.692 90.6664 124.626 94.9499 127.33L96.0909 127.986C99.6682 130.103 102.997 130.294 107.133 130.201C111.579 129.615 115.892 127.633 119 124.327C122.349 118.884 123.543 114.049 122.818 107.623C121.114 102.511 117.877 98.9056 113.273 96.168ZM158.734 50.0397C142.462 34.8831 121.933 28.0632 99.8532 28.6743C89.7103 29.0032 79.8054 32.0983 70.6364 36.3498C52.2649 45.5864 38.2744 61.5907 31.4124 80.9232L30.9034 82.4066C30.082 84.7745 29.3774 87.0638 29.0633 89.5576C29.011 90.133 28.9605 90.6919 28.9098 91.2504C28.8166 92.2531 28.7246 93.2558 28.6364 94.2589C31.8712 94.2851 35.106 94.3071 38.3409 94.321C39.6667 94.3262 40.9924 94.332 42.3182 94.3384C44.2631 94.3547 46.208 94.3705 48.153 94.3776C49.0928 94.3803 49.0928 94.3805 50.0142 94.3832C53.249 94.4194 56.3088 94.4328 59.464 93.6523C60.2335 93.426 60.9803 93.2059 61.7273 92.9862C69.5905 90.7633 76.8834 86.9916 82.6477 81.0941C88.3842 74.9375 94.8249 71.3418 103.339 70.9732C112.766 70.8524 119.774 73.5909 126.562 80.1122C126.906 80.443 127.239 80.7644 127.573 81.0854C138.735 91.7303 150.659 94.8106 165.778 94.4988C167.093 94.4709 168.408 94.4493 169.723 94.4335C173.604 94.3956 177.484 94.3386 181.364 94.2589C181.394 93.1987 181.388 92.1374 181.364 91.0771C178.408 75.4475 170.212 60.9731 158.734 50.0397Z" fill="currentColor"/>
</svg>
